<svg xmlns="http://www.w3.org/2000/svg" viewBox="0 0 900 600" role="img" aria-label="Flag of India"><rect width="900" height="600" fill="#FFF"/><rect width="900" height="200" fill="#FF9933"/><rect y="400" width="900" height="200" fill="#138808"/><circle cx="450" cy="300" r="90" fill="none" stroke="#000080" stroke-width="13"/><circle cx="450" cy="300" r="16" fill="#000080"/><line x1="450" y1="300" x2="540.0" y2="300.0" stroke="#000080" stroke-width="5"/><circle cx="527.3" cy="310.2" r="4" fill="#000080"/><line x1="450" y1="300" x2="536.9" y2="323.3" stroke="#000080" stroke-width="5"/><circle cx="522.1" cy="329.8" r="4" fill="#000080"/><line x1="450" y1="300" x2="527.9" y2="345.0" stroke="#000080" stroke-width="5"/><circle cx="511.9" cy="347.5" r="4" fill="#000080"/><line x1="450" y1="300" x2="513.6" y2="363.6" stroke="#000080" stroke-width="5"/><circle cx="497.5" cy="361.9" r="4" fill="#000080"/><line x1="450" y1="300" x2="495.0" y2="377.9" stroke="#000080" stroke-width="5"/><circle cx="479.8" cy="372.1" r="4" fill="#000080"/><line x1="450" y1="300" x2="473.3" y2="386.9" stroke="#000080" stroke-width="5"/><circle cx="460.2" cy="377.3" r="4" fill="#000080"/><line x1="450" y1="300" x2="450.0" y2="390.0" stroke="#000080" stroke-width="5"/><circle cx="439.8" cy="377.3" r="4" fill="#000080"/><line x1="450" y1="300" x2="426.7" y2="386.9" stroke="#000080" stroke-width="5"/><circle cx="420.2" cy="372.1" r="4" fill="#000080"/><line x1="450" y1="300" x2="405.0" y2="377.9" stroke="#000080" stroke-width="5"/><circle cx="402.5" cy="361.9" r="4" fill="#000080"/><line x1="450" y1="300" x2="386.4" y2="363.6" stroke="#000080" stroke-width="5"/><circle cx="388.1" cy="347.5" r="4" fill="#000080"/><line x1="450" y1="300" x2="372.1" y2="345.0" stroke="#000080" stroke-width="5"/><circle cx="377.9" cy="329.8" r="4" fill="#000080"/><line x1="450" y1="300" x2="363.1" y2="323.3" stroke="#000080" stroke-width="5"/><circle cx="372.7" cy="310.2" r="4" fill="#000080"/><line x1="450" y1="300" x2="360.0" y2="300.0" stroke="#000080" stroke-width="5"/><circle cx="372.7" cy="289.8" r="4" fill="#000080"/><line x1="450" y1="300" x2="363.1" y2="276.7" stroke="#000080" stroke-width="5"/><circle cx="377.9" cy="270.2" r="4" fill="#000080"/><line x1="450" y1="300" x2="372.1" y2="255.0" stroke="#000080" stroke-width="5"/><circle cx="388.1" cy="252.5" r="4" fill="#000080"/><line x1="450" y1="300" x2="386.4" y2="236.4" stroke="#000080" stroke-width="5"/><circle cx="402.5" cy="238.1" r="4" fill="#000080"/><line x1="450" y1="300" x2="405.0" y2="222.1" stroke="#000080" stroke-width="5"/><circle cx="420.2" cy="227.9" r="4" fill="#000080"/><line x1="450" y1="300" x2="426.7" y2="213.1" stroke="#000080" stroke-width="5"/><circle cx="439.8" cy="222.7" r="4" fill="#000080"/><line x1="450" y1="300" x2="450.0" y2="210.0" stroke="#000080" stroke-width="5"/><circle cx="460.2" cy="222.7" r="4" fill="#000080"/><line x1="450" y1="300" x2="473.3" y2="213.1" stroke="#000080" stroke-width="5"/><circle cx="479.8" cy="227.9" r="4" fill="#000080"/><line x1="450" y1="300" x2="495.0" y2="222.1" stroke="#000080" stroke-width="5"/><circle cx="497.5" cy="238.1" r="4" fill="#000080"/><line x1="450" y1="300" x2="513.6" y2="236.4" stroke="#000080" stroke-width="5"/><circle cx="511.9" cy="252.5" r="4" fill="#000080"/><line x1="450" y1="300" x2="527.9" y2="255.0" stroke="#000080" stroke-width="5"/><circle cx="522.1" cy="270.2" r="4" fill="#000080"/><line x1="450" y1="300" x2="536.9" y2="276.7" stroke="#000080" stroke-width="5"/><circle cx="527.3" cy="289.8" r="4" fill="#000080"/></svg>