<svg xmlns="http://www.w3.org/2000/svg" viewBox="0 0 32 32"><rect width="32" height="32" rx="7" fill="#F7F3EE"/><g transform="translate(16 16) scale(1.2) translate(-16 -16)"><g fill="#3b3e42">
    <path d="M16 23.6 C 10.3 20.1, 3.5 20.9, 1.5 22.5 L 1.5 26.0 C 4.5 24.6, 11 24.7, 16 26.7 C 21 24.7, 27.5 24.6, 30.5 26.0 L 30.5 22.5 C 28.5 20.9, 21.7 20.1, 16 23.6 Z"/>
    <path transform="translate(9.779 1.4) scale(0.06689) translate(0.000000,299.000000) scale(0.100000,-0.100000)" d="M810 2986 c0 -4 13 -38 29 -74 88 -200 78 -435 -25 -633 -69 -131
-159 -228 -414 -445 -247 -211 -353 -368 -390 -581 -16 -88 -8 -274 15 -358
22 -79 82 -208 134 -283 85 -126 141 -174 435 -374 154 -105 292 -199 306
-208 l25 -18 300 204 c165 113 326 230 358 262 344 336 367 879 56 1327 -51
75 -136 175 -147 175 -4 0 -4 -42 -1 -92 7 -106 -4 -259 -21 -303 -39 -102
-131 -98 -176 7 -15 36 -19 87 -25 318 -7 295 -14 342 -75 510 -50 141 -136
288 -251 430 -64 79 -133 149 -133 136z m-36 -1805 c26 -13 70 -45 99 -71 l52
-48 48 44 c26 23 73 55 105 71 50 25 68 28 147 28 77 -1 97 -5 140 -27 172
-90 214 -291 103 -486 -80 -141 -234 -291 -440 -429 l-98 -65 -37 23 c-175
105 -366 269 -449 385 -135 190 -151 375 -42 499 38 43 91 77 148 96 47 16
173 4 224 -20z"/>
  </g></g></svg>
